# xmcd CD database file
#
# Track frame offsets:
#	150
#	17837
#	34347
#	69255
#	87072
#
# Disc length: 1394 seconds
#
# Revision: 0
# Processed by: cddbd v1.5.1PL2 Copyright (c) Steve Scherf et al.
# Submitted via: CDex 1.51
#
DISCID=34057005
DTITLE=上原あずみ - Never free
DYEAR=2006
DGENRE=JPop
TTITLE0=Never free
TTITLE1=lie
TTITLE2=Never free 〜original mix〜
TTITLE3=秘密 〜SECRET PUSH MIX〜
TTITLE4=Never free 〜instrumental〜
EXTD=YEAR: 2006
EXTT0=
EXTT1=
EXTT2=
EXTT3=
EXTT4=
PLAYORDER=
